<svg xmlns="http://www.w3.org/2000/svg" viewBox="0 0 263.50762 59.18841"><defs><style>.cls-1{fill:#fff;}</style></defs><title>Middel 5</title><g id="Laag_2" data-name="Laag 2"><g id="Laag_1-2" data-name="Laag 1"><polygon class="cls-1" points="36.992 0 59.185 0.004 59.189 22.198 36.992 0"/><polygon class="cls-1" points="22.197 59.188 0.004 59.185 0 36.99 22.197 59.188"/><polygon class="cls-1" points="0 14.797 0 0.001 14.796 0.001 59.185 44.389 59.185 59.185 44.389 59.185 0 14.797"/><rect class="cls-1" x="114.46367" y="21.90465" width="5.46094" height="26.08545"/><path class="cls-1" d="M117.242,10.56236a3.29125,3.29125,0,0,0-3.30566,3.33106,3.16654,3.16654,0,0,0,.97559,2.36963,3.37716,3.37716,0,0,0,4.70019-.02881,3.32309,3.32309,0,0,0-.00293-4.72266A3.29712,3.29712,0,0,0,117.242,10.56236Z"/><path class="cls-1" d="M132.86016,14.35484l-5.46,1.76319v5.78662h-4.22071v4.88769h4.22071V40.55846c0,5.207,2.49511,7.959,7.21386,7.959a8.30573,8.30573,0,0,0,4.03614-.86523l.39648-.21436V42.09166l-1.22461.92481a3.34592,3.34592,0,0,1-2.10449.66113,2.668,2.668,0,0,1-2.18555-.7666,5.09853,5.09853,0,0,1-.67187-3.04786V26.79234h6.18652V21.90465h-6.18652Z"/><path class="cls-1" d="M156.87676,22.06139l-.47363-.19385a7.06711,7.06711,0,0,0-2.64063-.395A6.639,6.639,0,0,0,149.41,23.10289a8.31161,8.31161,0,0,0-1.40625,1.53858V21.90465h-5.46V47.9901h5.46V34.70738a10.3107,10.3107,0,0,1,1.54883-6.03174,4.2656,4.2656,0,0,1,3.58692-2.05126,4.12519,4.12519,0,0,1,2.50781.63281l1.22949.94482Z"/><path class="cls-1" d="M170.34258,21.329a12.94486,12.94486,0,0,0-9.68262,3.71c-2.38672,2.45361-3.59765,5.88379-3.59765,10.1958a13.52193,13.52193,0,0,0,3.458,9.647,12.16087,12.16087,0,0,0,9.24707,3.68359,12.41515,12.41515,0,0,0,9.46583-3.77978,13.99384,13.99384,0,0,0,3.52734-9.93408c0-4.17481-1.10449-7.502-3.28027-9.88868C177.283,22.55162,174.20879,21.329,170.34258,21.329Zm4.98828,20.20459a6.42057,6.42057,0,0,1-5.27539,2.19189,6.79127,6.79127,0,0,1-5.39941-2.25977,9.32346,9.32346,0,0,1-2.03809-6.37451,9.89793,9.89793,0,0,1,2.02246-6.61279,6.69315,6.69315,0,0,1,5.415-2.30957,6.37436,6.37436,0,0,1,5.27246,2.21533c1.2461,1.51172,1.87695,3.73584,1.87695,6.61084C177.20488,37.83336,176.575,40.03307,175.33086,41.53356Z"/><path class="cls-1" d="M201.46758,35.6151a10.96626,10.96626,0,0,0-2.374-1.60108,31.42444,31.42444,0,0,0-2.99317-1.3125c-.80859-.31543-1.52832-.61084-2.16211-.87793a7.18074,7.18074,0,0,1-1.47168-.82128,2.76438,2.76438,0,0,1-.80273-.90284,2.61566,2.61566,0,0,1-.25781-1.24316,2.09064,2.09064,0,0,1,.25586-1.03565,2.464,2.464,0,0,1,.75586-.83642,4.17131,4.17131,0,0,1,1.2871-.59375,6.55372,6.55372,0,0,1,1.78125-.22168,10.45524,10.45524,0,0,1,5.81739,1.646l1.18164.77587V22.70055l-.459-.20459a14.94738,14.94738,0,0,0-6.01269-1.167,14.1964,14.1964,0,0,0-3.6875.48437,10.60416,10.60416,0,0,0-3.24121,1.46,7.78149,7.78149,0,0,0-2.33594,2.47315,6.64516,6.64516,0,0,0-.89844,3.4458,7.47517,7.47517,0,0,0,.47364,2.75293,6.34277,6.34277,0,0,0,1.416,2.14062,9.42208,9.42208,0,0,0,2.24121,1.61719,28.67343,28.67343,0,0,0,2.9502,1.34619c.77832.30322,1.50488.59082,2.18066.87012a8.42919,8.42919,0,0,1,1.62695.86767,3.64839,3.64839,0,0,1,.99512,1.00147,2.22681,2.22681,0,0,1,.32129,1.24951c0,1.15381-.457,2.6875-4.416,2.6875a10.92277,10.92277,0,0,1-6.61915-2.2251l-1.21777-.89453v6.19385l.40723.21387a14.72517,14.72517,0,0,0,6.92676,1.55175,16.04644,16.04644,0,0,0,3.85253-.456,10.644,10.644,0,0,0,3.33008-1.42285,7.67752,7.67752,0,0,0,2.38184-2.47412,6.83325,6.83325,0,0,0,.91113-3.55811,6.97874,6.97874,0,0,0-.55957-2.88379A6.65067,6.65067,0,0,0,201.46758,35.6151Z"/><path class="cls-1" d="M219.50274,21.329a12.94562,12.94562,0,0,0-9.6836,3.71c-2.38672,2.45361-3.59765,5.88379-3.59765,10.1958a13.52193,13.52193,0,0,0,3.458,9.647,12.16382,12.16382,0,0,0,9.24707,3.68359,12.41511,12.41511,0,0,0,9.46582-3.77978,13.99329,13.99329,0,0,0,3.52833-9.93408c0-4.17383-1.1045-7.501-3.28028-9.88868C226.44219,22.55162,223.368,21.329,219.50274,21.329ZM224.491,41.53356a6.42131,6.42131,0,0,1-5.27637,2.19189,6.78789,6.78789,0,0,1-5.39844-2.25977,9.32152,9.32152,0,0,1-2.03906-6.37451,9.89793,9.89793,0,0,1,2.02246-6.61279,6.69579,6.69579,0,0,1,5.415-2.30957,6.37508,6.37508,0,0,1,5.27344,2.21533c1.24512,1.51221,1.876,3.73633,1.876,6.61084C226.36406,37.83287,225.73418,40.03307,224.491,41.53356Z"/><path class="cls-1" d="M263.50762,26.79234V21.90465H257.3211V14.35484l-5.46,1.76319v5.78662h-9.3789V18.88121c0-3.97851,1.918-4.43848,3.36035-4.43848a4.48118,4.48118,0,0,1,2.23926.54883l1.13867.64063V10.26354l-.47461-.19385a9.2082,9.2082,0,0,0-9.24805,1.979,9.0395,9.0395,0,0,0-2.45214,6.64063v3.21533h-4.19629v4.88769h4.19629V47.9901h5.43652V26.79234h9.3789V40.55846c0,5.207,2.49512,7.959,7.21387,7.959a8.30042,8.30042,0,0,0,4.03613-.86523l.39649-.21436V42.09166l-1.22461.92481a3.34592,3.34592,0,0,1-2.10449.66113,2.67219,2.67219,0,0,1-2.18555-.7666,5.10263,5.10263,0,0,1-.67187-3.04786V26.79234Z"/><path class="cls-1" d="M103.32988,9.52623V36.39244c0,1.293.02247,2.40967.06739,3.33985-.127-.19971-19.2793-30.20606-19.2793-30.20606H77.58672V47.9901h5.47852V20.44615q0-1.59228-.03516-2.75586c.05469.08936,19.56055,30.29981,19.56055,30.29981h6.21875V9.52623Z"/></g></g></svg>