<svg id="Laag_1" data-name="Laag 1" xmlns="http://www.w3.org/2000/svg" viewBox="0 0 302.2712 74.6962"><defs><style>.cls-1{fill:#fff;}</style></defs><title>fictive companies for templates v2</title><polygon class="cls-1" points="63.875 17.871 61.359 19.33 56.326 22.232 33.344 8.946 10.346 22.232 5.313 19.33 2.797 17.871 33.344 0.24 63.875 17.871"/><polygon class="cls-1" points="65.972 22.467 65.972 56.755 35.861 74.151 35.861 65.428 58.423 52.411 58.423 26.829 63.456 23.926 65.972 22.467"/><polygon class="cls-1" points="30.828 65.428 30.828 74.151 0.7 56.755 0.7 22.467 3.216 23.926 8.249 26.829 8.249 52.411 30.828 65.428"/><polygon class="cls-1" points="30.828 39.863 30.828 59.624 13.281 49.492 13.281 29.731 30.828 39.863"/><polygon class="cls-1" points="51.294 25.134 33.344 35.501 15.378 25.134 33.344 14.767 51.294 25.134"/><polygon class="cls-1" points="53.391 29.731 53.391 49.492 35.861 59.624 35.861 39.863 53.391 29.731"/><polygon class="cls-1" points="30.828 39.863 30.828 59.624 13.281 49.492 13.281 29.731 30.828 39.863"/><polygon class="cls-1" points="51.294 25.134 33.344 35.501 15.378 25.134 33.344 14.767 51.294 25.134"/><polygon class="cls-1" points="53.391 29.731 53.391 49.492 35.861 59.624 35.861 39.863 53.391 29.731"/><polygon class="cls-1" points="30.828 39.863 30.828 59.624 13.281 49.492 13.281 29.731 30.828 39.863"/><polygon class="cls-1" points="51.294 25.134 33.344 35.501 15.378 25.134 33.344 14.767 51.294 25.134"/><polygon class="cls-1" points="53.391 29.731 53.391 49.492 35.861 59.624 35.861 39.863 53.391 29.731"/><polygon class="cls-1" points="30.828 39.863 30.828 59.624 13.281 49.492 13.281 29.731 30.828 39.863"/><polygon class="cls-1" points="51.294 25.134 33.344 35.501 15.378 25.134 33.344 14.767 51.294 25.134"/><polygon class="cls-1" points="53.391 29.731 53.391 49.492 35.861 59.624 35.861 39.863 53.391 29.731"/><path class="cls-1" d="M106.11892,29.85293v-.64831c0-3.30156-2.59323-5.18886-7.07856-5.18886-4.18759,0-6.7232,1.53193-6.7232,4.0099,0,1.652,1.18136,2.77092,3.59691,3.3616l7.96218,1.82727c4.36527,1.0637,6.78562,2.125,8.67292,3.89465a9.69164,9.69164,0,0,1,3.00623,7.48915c0,8.13987-6.25257,13.15105-16.45742,13.15105-10.613,0-16.74555-5.07121-16.808-13.85938h8.8458c.17769,4.48293,2.71329,6.48788,8.08224,6.48788,4.543,0,7.31387-1.652,7.31387-4.4229,0-1.94733-1.41667-3.304-4.24521-4.00991l-7.13619-1.76964c-4.18759-1.00367-6.78562-2.1226-8.55286-3.65693a9.93151,9.93151,0,0,1-3.12629-7.72687c0-7.60681,5.83958-12.14977,15.80431-12.14977,6.37262,0,10.85315,1.8873,13.38875,5.60426,1.29662,1.94492,1.94493,4.06993,2.3003,7.60681Z"/><path class="cls-1" d="M126.24527,45.07136c.53306,3.89225,2.83335,6.01485,6.43026,6.01485a5.32994,5.32994,0,0,0,4.95115-2.5356h8.49523c-1.59436,5.54423-6.90088,9.08111-13.6817,9.08111-8.78817,0-14.62774-6.01485-14.62774-14.98071,0-8.90343,5.95483-15.03834,14.56531-15.03834,6.01726,0,10.56022,3.00863,12.68283,8.37517a23.07873,23.07873,0,0,1,1.41667,9.08352Zm11.62152-5.8996c-.35537-3.3616-2.30029-5.18887-5.54663-5.18887-3.24154,0-5.36415,1.82727-6.01726,5.18887Z"/><path class="cls-1" d="M157.99315,28.37863V31.152c3.06385-2.83095,4.83589-3.59931,7.78449-3.59931,6.19014,0,9.96473,4.13,9.96473,10.85315v18.46H167.3672V41.35439c0-2.891-.17769-4.0099-.88362-5.0712a3.96159,3.96159,0,0,0-3.41923-1.652,4.71244,4.71244,0,0,0-3.5969,1.53433c-.94605,1.0613-1.239,2.24026-1.239,4.71824v15.982h-8.37518V28.37863Z"/><path class="cls-1" d="M207.42782,56.86576H199.408V53.7995a8.81229,8.81229,0,0,1-7.84212,3.83222c-7.49156,0-12.50514-5.95723-12.50514-14.98071,0-9.08111,5.07121-15.09837,12.74045-15.09837a9.26461,9.26461,0,0,1,7.25144,2.951V17.52788h8.37518Zm-20.112-14.27238c0,5.01358,2.36272,8.25752,6.01726,8.25752,3.5969,0,6.01725-3.304,6.01725-8.13986,0-5.07121-2.36272-8.37518-6.01725-8.37518S187.31587,37.5798,187.31587,42.59338Z"/><path class="cls-1" d="M212.16287,17.52788H220.538v12.8557a12.17041,12.17041,0,0,1,7.84213-2.77091c7.25624,0,12.14977,5.8972,12.14977,14.62534,0,8.96586-5.2489,15.39371-12.56277,15.39371-3.53928,0-5.54183-1.0613-7.78449-4.0099v3.24394h-8.01981Zm8.01981,25.0655c0,4.95355,2.42034,8.25752,6.07488,8.25752s6.01726-3.18631,6.01726-8.13986c0-5.13124-2.3003-8.31515-6.01726-8.31515C222.603,34.39589,220.18268,37.69746,220.18268,42.59338Z"/><path class="cls-1" d="M272.686,42.82869c0,8.61049-6.36782,14.803-15.156,14.803-8.8458,0-15.09837-6.19254-15.09837-15.03834,0-8.78817,6.25257-14.98071,15.09837-14.98071C266.55349,27.61267,272.686,33.74758,272.686,42.82869Zm-21.82156-.23531c0,5.36655,2.42035,8.37518,6.7232,8.37518,4.18758,0,6.66556-3.00863,6.66556-8.19749,0-5.48661-2.35792-8.49284-6.72319-8.49284C253.28479,34.27823,250.86444,37.28446,250.86444,42.59338Z"/><path class="cls-1" d="M301.30759,56.86576h-9.72941l-5.36895-8.13987-5.2489,8.13987H271.4038l10.20484-14.92069-9.31642-13.56644h9.31642l4.65821,7.19622,4.48533-7.19622h9.31643l-9.2588,13.56644Z"/></svg>